<svg width="22" height="22" viewBox="0 0 22 22" fill="none" xmlns="http://www.w3.org/2000/svg">
<path d="M6.36056 10.1149C6.23869 10.1251 6.11427 10.1302 5.98732 10.1302C5.59122 10.1302 5.20529 10.0794 4.83966 9.98032C5.25607 7.16085 7.48791 4.92813 10.3063 4.51156C10.4053 4.87733 10.4561 5.26342 10.4561 5.65967C10.4561 5.78413 10.451 5.9086 10.4408 6.03306C10.4231 6.25659 10.5881 6.45217 10.8115 6.47249C11.035 6.49281 11.2305 6.32517 11.2508 6.10164C11.2635 5.95686 11.2686 5.80953 11.2686 5.66221C11.2686 5.2431 11.2203 4.83415 11.1264 4.44552C11.1721 4.44552 11.2203 4.44298 11.2686 4.44298C14.8588 4.44044 17.7686 7.35135 17.7686 10.943C17.7686 10.9913 17.7686 11.037 17.7661 11.0852C17.3751 10.9938 16.9688 10.943 16.5499 10.943C16.4026 10.943 16.2553 10.948 16.1106 10.9608C15.8872 10.9786 15.7196 11.1767 15.7399 11.4002C15.7602 11.6237 15.9557 11.7914 16.1792 11.7711C16.301 11.7609 16.4255 11.7558 16.5524 11.7558C16.9485 11.7558 17.3344 11.8066 17.7001 11.9057C17.2811 14.7252 15.0493 16.9579 12.2309 17.3745C12.1319 17.0087 12.0811 16.6226 12.0811 16.2263C12.0811 16.1019 12.0861 15.9774 12.0963 15.853C12.1141 15.6294 11.9491 15.4338 11.7256 15.4135C11.5022 15.3932 11.3067 15.5608 11.2864 15.7844C11.2737 15.9292 11.2686 16.0765 11.2686 16.2238C11.2686 16.6429 11.3169 17.0519 11.4108 17.4405C11.3651 17.4405 11.3168 17.443 11.2686 17.443C7.67833 17.4456 4.76856 14.5347 4.76856 10.943C4.76856 10.8948 4.76856 10.849 4.7711 10.8008C5.15958 10.8948 5.56837 10.943 5.98731 10.943C6.13458 10.943 6.28185 10.938 6.42657 10.9252C6.65 10.9075 6.81758 10.7093 6.79726 10.4858C6.77695 10.2623 6.58144 10.0946 6.358 10.115L6.36056 10.1149ZM7.84845 9.72377C7.64533 9.81776 7.55392 10.0591 7.64787 10.2623C7.74181 10.4655 7.98302 10.5569 8.18615 10.4629C9.3338 9.9346 10.2606 9.01002 10.7887 7.85937C10.8826 7.65616 10.7938 7.41486 10.5881 7.32087C10.3824 7.22689 10.1438 7.31579 10.0498 7.52154C9.60295 8.49438 8.81837 9.27926 7.84845 9.72377ZM14.8867 11.6212C14.7928 11.418 14.5516 11.3266 14.3485 11.4205C13.2008 11.9489 12.274 12.8735 11.7459 14.0241C11.652 14.2273 11.7409 14.4686 11.9465 14.5626C12.1522 14.6566 12.3908 14.5677 12.4848 14.3619C12.9317 13.3891 13.7162 12.6042 14.6862 12.1597C14.8893 12.0657 14.9807 11.8244 14.8867 11.6212Z" fill="white" stroke="white" stroke-width="2"/>
<path d="M6.36056 10.1149C6.23869 10.1251 6.11427 10.1302 5.98732 10.1302C5.59122 10.1302 5.20529 10.0794 4.83966 9.98032C5.25607 7.16085 7.48791 4.92813 10.3063 4.51156C10.4053 4.87733 10.4561 5.26342 10.4561 5.65967C10.4561 5.78413 10.451 5.9086 10.4408 6.03306C10.4231 6.25659 10.5881 6.45217 10.8115 6.47249C11.035 6.49281 11.2305 6.32517 11.2508 6.10164C11.2635 5.95686 11.2686 5.80953 11.2686 5.66221C11.2686 5.2431 11.2203 4.83415 11.1264 4.44552C11.1721 4.44552 11.2203 4.44298 11.2686 4.44298C14.8588 4.44044 17.7686 7.35135 17.7686 10.943C17.7686 10.9913 17.7686 11.037 17.7661 11.0852C17.3751 10.9938 16.9688 10.943 16.5499 10.943C16.4026 10.943 16.2553 10.948 16.1106 10.9608C15.8872 10.9786 15.7196 11.1767 15.7399 11.4002C15.7602 11.6237 15.9557 11.7914 16.1792 11.7711C16.301 11.7609 16.4255 11.7558 16.5524 11.7558C16.9485 11.7558 17.3344 11.8066 17.7001 11.9057C17.2811 14.7252 15.0493 16.9579 12.2309 17.3745C12.1319 17.0087 12.0811 16.6226 12.0811 16.2263C12.0811 16.1019 12.0861 15.9774 12.0963 15.853C12.1141 15.6294 11.9491 15.4338 11.7256 15.4135C11.5022 15.3932 11.3067 15.5608 11.2864 15.7844C11.2737 15.9292 11.2686 16.0765 11.2686 16.2238C11.2686 16.6429 11.3169 17.0519 11.4108 17.4405C11.3651 17.4405 11.3168 17.443 11.2686 17.443C7.67833 17.4456 4.76856 14.5347 4.76856 10.943C4.76856 10.8948 4.76856 10.849 4.7711 10.8008C5.15958 10.8948 5.56837 10.943 5.98731 10.943C6.13458 10.943 6.28185 10.938 6.42657 10.9252C6.65 10.9075 6.81758 10.7093 6.79726 10.4858C6.77695 10.2623 6.58144 10.0946 6.358 10.115L6.36056 10.1149ZM7.84845 9.72377C7.64533 9.81776 7.55392 10.0591 7.64787 10.2623C7.74181 10.4655 7.98302 10.5569 8.18615 10.4629C9.3338 9.9346 10.2606 9.01002 10.7887 7.85937C10.8826 7.65616 10.7938 7.41486 10.5881 7.32087C10.3824 7.22689 10.1438 7.31579 10.0498 7.52154C9.60295 8.49438 8.81837 9.27926 7.84845 9.72377ZM14.8867 11.6212C14.7928 11.418 14.5516 11.3266 14.3485 11.4205C13.2008 11.9489 12.274 12.8735 11.7459 14.0241C11.652 14.2273 11.7409 14.4686 11.9465 14.5626C12.1522 14.6566 12.3908 14.5677 12.4848 14.3619C12.9317 13.3891 13.7162 12.6042 14.6862 12.1597C14.8893 12.0657 14.9807 11.8244 14.8867 11.6212Z" fill="#3B3297"/>
</svg>
