<svg width="21" height="21" viewBox="0 0 21 21" fill="none" xmlns="http://www.w3.org/2000/svg">
<g clip-path="url(#clip0_204_21)">
<path d="M10.5 3C8.5 3 7 4.567 7 6.5C7.0024 8.0629 8.0397 9.402 9.5 9.8379V15.877C8.5695 15.7123 7.6245 15.3274 6.8516 14.6075C5.7992 13.6273 5.002 12.0676 5.002 9.498C5.0097 8.9334 4.5489 8.4744 3.9844 8.4843C3.4329 8.493 2.9924 8.9465 3 9.498C3 12.5009 4.0119 14.6935 5.4902 16.0703C6.9685 17.4471 8.8379 18 10.5 18C12.1656 18 14.035 17.4404 15.5117 16.0605C16.9884 14.6806 17.998 12.4868 17.998 9.498C18.0628 8.1027 15.9352 8.1027 16 9.498C16 12.051 15.2003 13.6129 14.1465 14.5976C13.3731 15.3203 12.4288 15.7084 11.5 15.875V9.8418C12.9607 9.4058 13.9986 8.0642 14 6.5C14 4.567 12.5 3 10.5 3ZM10.5 5C11.3284 5 12 5.6716 12 6.5C12 7.3284 11.3284 8 10.5 8C9.6716 8 9 7.3284 9 6.5C9 5.6716 9.6716 5 10.5 5Z" fill="white" stroke="white" stroke-width="2" stroke-linejoin="round"/>
<path d="M10.5 3C8.5 3 7 4.567 7 6.5C7.0024 8.0629 8.0397 9.402 9.5 9.8379V15.877C8.5695 15.7123 7.6245 15.3274 6.8516 14.6075C5.7992 13.6273 5.002 12.0676 5.002 9.498C5.0097 8.9334 4.5489 8.4744 3.9844 8.4843C3.4329 8.493 2.9924 8.9465 3 9.498C3 12.5009 4.0119 14.6935 5.4902 16.0703C6.9685 17.4471 8.8379 18 10.5 18C12.1656 18 14.035 17.4404 15.5117 16.0605C16.9884 14.6806 17.998 12.4868 17.998 9.498C18.0628 8.1027 15.9352 8.1027 16 9.498C16 12.051 15.2003 13.6129 14.1465 14.5976C13.3731 15.3203 12.4288 15.7084 11.5 15.875V9.8418C12.9607 9.4058 13.9986 8.0642 14 6.5C14 4.567 12.5 3 10.5 3ZM10.5 5C11.3284 5 12 5.6716 12 6.5C12 7.3284 11.3284 8 10.5 8C9.6716 8 9 7.3284 9 6.5C9 5.6716 9.6716 5 10.5 5Z" fill="#4264FB"/>
</g>
<defs>
<clipPath id="clip0_204_21">
<rect width="21" height="21" fill="white"/>
</clipPath>
</defs>
</svg>
