<svg width="21" height="21" viewBox="0 0 21 21" fill="none" xmlns="http://www.w3.org/2000/svg">
<g clip-path="url(#clip0_204_26)">
<path d="M7 6C6.446 6 6 6.446 6 7C6 7.554 6.446 8 7 8H8.2969L7.6523 10H5.5C4.946 10 4.5 10.446 4.5 11C4.5 11.554 4.946 12 5.5 12H7.0098L6.041 15.0098C5.9126 15.4037 6.1278 15.8271 6.5217 15.9555C6.9156 16.0839 7.339 15.8687 7.4674 15.4748C7.4679 15.4735 7.4683 15.4721 7.4687 15.4708L8.5859 12H12.414L13.5312 15.4707C13.6585 15.865 14.0813 16.0814 14.4755 15.9541C14.8697 15.8268 15.0862 15.404 14.9589 15.0098L13.9902 12H15.5C16.054 12 16.5 11.554 16.5 11C16.5 10.446 16.054 10 15.5 10H13.3477L12.7031 8H14C14.554 8 15 7.554 15 7C15 6.446 14.554 6 14 6H7ZM9.873 8H11.127L11.7715 10H9.2285L9.873 8Z" fill="white" stroke="white" stroke-width="2" stroke-linejoin="round"/>
<path d="M7 6C6.446 6 6 6.446 6 7C6 7.554 6.446 8 7 8H8.2969L7.6523 10H5.5C4.946 10 4.5 10.446 4.5 11C4.5 11.554 4.946 12 5.5 12H7.0098L6.041 15.0098C5.9126 15.4037 6.1278 15.8271 6.5217 15.9555C6.9156 16.0839 7.339 15.8687 7.4674 15.4748C7.4679 15.4735 7.4683 15.4721 7.4687 15.4708L8.5859 12H12.414L13.5312 15.4707C13.6585 15.865 14.0813 16.0814 14.4755 15.9541C14.8697 15.8268 15.0862 15.404 14.9589 15.0098L13.9902 12H15.5C16.054 12 16.5 11.554 16.5 11C16.5 10.446 16.054 10 15.5 10H13.3477L12.7031 8H14C14.554 8 15 7.554 15 7C15 6.446 14.554 6 14 6H7ZM9.873 8H11.127L11.7715 10H9.2285L9.873 8Z" fill="#CE7D33"/>
</g>
<defs>
<clipPath id="clip0_204_26">
<rect width="21" height="21" fill="white"/>
</clipPath>
</defs>
</svg>
