<svg width="21" height="21" viewBox="0 0 21 21" fill="none" xmlns="http://www.w3.org/2000/svg">
<g clip-path="url(#clip0_204_31)">
<path d="M5 4.15C5.2091 3.3484 6.0284 2.8681 6.83 3.0771C7.6316 3.2861 8.1119 4.1055 7.9029 4.9071C7.7026 5.6752 6.9386 6.1542 6.16 6C5.3474 5.839 4.8191 5.0498 4.98 4.2371C4.9858 4.2079 4.9925 4.1788 5 4.15ZM16 15.32C16.1032 15.8626 15.7469 16.386 15.2044 16.4892C15.2029 16.4895 15.2015 16.4898 15.2 16.49C14.7748 16.576 14.3426 16.3781 14.13 16L12.45 12.63L11 12.92L10.78 13H10.72V15.15L11.34 15H11.48C11.7671 15.0054 11.9955 15.2425 11.9901 15.5297C11.9862 15.7361 11.8606 15.9207 11.67 16L6.67 17C6.6137 17.0095 6.5563 17.0095 6.5 17C6.2128 17 5.98 16.7672 5.98 16.48C5.98 16.2701 6.1062 16.0807 6.3 16L10.45 15.17V13L7.23 13.58C7.066 13.6223 6.894 13.6223 6.73 13.58C6.3906 13.4933 6.1212 13.2354 6.02 12.9H6L5 8.83C4.9688 8.6884 4.9688 8.5416 5 8.4C5.0936 8.013 5.4078 7.7185 5.8 7.65L10.5 7.13V3H10.72V7.1H10.78L11 7.08L11.4 7H11.61C11.8773 7.0643 12.0426 7.3323 11.98 7.6C11.9361 7.835 11.729 8.0041 11.49 8L11 8.08H10.78H10.72V10.94H10.78L11 10.88L12.81 10.52C13.2375 10.4848 13.6399 10.7262 13.81 11.12L15.81 15.06C15.887 15.1358 15.9511 15.2236 16 15.32ZM10.5 8.13L8 8.4L8.74 11.34L10.5 11V8.13Z" fill="white" stroke="white" stroke-width="2" stroke-linejoin="round"/>
<path d="M5 4.15C5.2091 3.3484 6.0284 2.8681 6.83 3.0771C7.6316 3.2861 8.1119 4.1055 7.9029 4.9071C7.7026 5.6752 6.9386 6.1542 6.16 6C5.3474 5.839 4.8191 5.0498 4.98 4.2371C4.9858 4.2079 4.9925 4.1788 5 4.15ZM16 15.32C16.1032 15.8626 15.7469 16.386 15.2044 16.4892C15.2029 16.4895 15.2015 16.4898 15.2 16.49C14.7748 16.576 14.3426 16.3781 14.13 16L12.45 12.63L11 12.92L10.78 13H10.72V15.15L11.34 15H11.48C11.7671 15.0054 11.9955 15.2425 11.9901 15.5297C11.9862 15.7361 11.8606 15.9207 11.67 16L6.67 17C6.6137 17.0095 6.5563 17.0095 6.5 17C6.2128 17 5.98 16.7672 5.98 16.48C5.98 16.2701 6.1062 16.0807 6.3 16L10.45 15.17V13L7.23 13.58C7.066 13.6223 6.894 13.6223 6.73 13.58C6.3906 13.4933 6.1212 13.2354 6.02 12.9H6L5 8.83C4.9688 8.6884 4.9688 8.5416 5 8.4C5.0936 8.013 5.4078 7.7185 5.8 7.65L10.5 7.13V3H10.72V7.1H10.78L11 7.08L11.4 7H11.61C11.8773 7.0643 12.0426 7.3323 11.98 7.6C11.9361 7.835 11.729 8.0041 11.49 8L11 8.08H10.78H10.72V10.94H10.78L11 10.88L12.81 10.52C13.2375 10.4848 13.6399 10.7262 13.81 11.12L15.81 15.06C15.887 15.1358 15.9511 15.2236 16 15.32ZM10.5 8.13L8 8.4L8.74 11.34L10.5 11V8.13Z" fill="#20734B"/>
</g>
<defs>
<clipPath id="clip0_204_31">
<rect width="21" height="21" fill="white"/>
</clipPath>
</defs>
</svg>
