<svg width="20" height="16" viewBox="0 0 20 16" fill="none" xmlns="http://www.w3.org/2000/svg">
<path d="M17.0146 12.9971C17.1954 13.8415 15.9113 14.1175 15.7304 13.2736L13.5968 3.53016H12.6323V8.98416H13.0685C13.4315 8.98416 13.7263 9.27959 13.7263 9.64176V11.6873C13.7263 12.0496 13.4315 12.3443 13.0685 12.3443H6.93134C6.56883 12.3443 6.27354 12.0496 6.27354 11.6873V9.64176C6.27354 9.24968 6.58437 8.98416 6.96563 8.98416H7.3664V3.53016H6.403L4.26997 13.2736C4.08839 14.1173 2.80446 13.8414 2.98526 12.9971L5.22409 2.77571C5.27063 2.45808 5.5454 2.21477 5.87509 2.21477L14.1254 2.21644C14.4288 2.21812 14.7019 2.42716 14.7671 2.73441L17.0147 12.997L17.0146 12.9971ZM11.3169 8.98428V3.53028H8.68114V8.98428H11.3169ZM12.4114 10.2998H7.58883V11.0296H12.4114V10.2998Z" fill="white" stroke="white" stroke-width="2"/>
<path d="M17.0146 12.9971C17.1954 13.8415 15.9113 14.1175 15.7304 13.2736L13.5968 3.53016H12.6323V8.98416H13.0685C13.4315 8.98416 13.7263 9.27959 13.7263 9.64176V11.6873C13.7263 12.0496 13.4315 12.3443 13.0685 12.3443H6.93134C6.56883 12.3443 6.27354 12.0496 6.27354 11.6873V9.64176C6.27354 9.24968 6.58437 8.98416 6.96563 8.98416H7.3664V3.53016H6.403L4.26997 13.2736C4.08839 14.1173 2.80446 13.8414 2.98526 12.9971L5.22409 2.77571C5.27063 2.45808 5.5454 2.21477 5.87509 2.21477L14.1254 2.21644C14.4288 2.21812 14.7019 2.42716 14.7671 2.73441L17.0147 12.997L17.0146 12.9971ZM11.3169 8.98428V3.53028H8.68114V8.98428H11.3169ZM12.4114 10.2998H7.58883V11.0296H12.4114V10.2998Z" fill="#20734B"/>
</svg>
