<svg width="13" height="15" viewBox="0 0 13 15" fill="none" xmlns="http://www.w3.org/2000/svg">
<path fill-rule="evenodd" clip-rule="evenodd" d="M11.2376 1.00048C11.6278 1.00048 12 1.36141 12 1.85102V13.0231C11.9984 13.3226 11.8735 13.4032 11.6254 13.4109H10.863C10.589 13.4109 10.4872 13.2783 10.4795 13.0318V3.12877H8.68144V7.88853C9.4947 8.03668 10.1226 8.74577 10.1226 9.6029C10.1226 10.5712 9.32836 11.3613 8.36863 11.3613C7.40879 11.3613 6.62336 10.5697 6.62336 9.6029C6.62336 8.74743 7.24832 8.03737 8.06013 7.88853V3.12877H5.83893V9.1578H5.94468C6.10818 9.1578 6.25762 9.30674 6.25762 9.47064V10.3785C6.25762 10.5424 6.10819 10.6914 5.94468 10.6914H3.08454C2.92114 10.6914 2.77161 10.5424 2.77161 10.3785V9.47064C2.77161 9.30674 2.92104 9.1578 3.08454 9.1578H3.1903V3.12877H2.52479V13.0361C2.53059 13.279 2.41057 13.4107 2.18108 13.4107H1.37018C1.1157 13.4079 1.0064 13.2732 1 13.0317V1.85054C1 1.36094 1.37678 1 1.76683 1C2.08518 1 2.39189 1.24072 2.49401 1.59497H10.5151C10.6168 1.24043 10.9196 1 11.2378 1L11.2376 1.00048ZM5.21286 3.1291H3.81573V9.15813H5.21286V3.1291ZM8.37294 8.7086C7.88351 8.7086 7.47389 9.10879 7.47389 9.6032C7.47389 10.1003 7.88354 10.5067 8.37294 10.5067C8.86511 10.5067 9.26754 10.0968 9.26754 9.6032C9.26754 9.11242 8.865 8.7086 8.37294 8.7086ZM5.64048 9.78393H3.39281V10.0616H5.64048V9.78393Z" fill="white" stroke="white" stroke-width="2"/>
<path fill-rule="evenodd" clip-rule="evenodd" d="M11.2376 1.00048C11.6278 1.00048 12 1.36141 12 1.85102V13.0231C11.9984 13.3226 11.8735 13.4032 11.6254 13.4109H10.863C10.589 13.4109 10.4872 13.2783 10.4795 13.0318V3.12877H8.68144V7.88853C9.4947 8.03668 10.1226 8.74577 10.1226 9.6029C10.1226 10.5712 9.32836 11.3613 8.36863 11.3613C7.40879 11.3613 6.62336 10.5697 6.62336 9.6029C6.62336 8.74743 7.24832 8.03737 8.06013 7.88853V3.12877H5.83893V9.1578H5.94468C6.10818 9.1578 6.25762 9.30674 6.25762 9.47064V10.3785C6.25762 10.5424 6.10819 10.6914 5.94468 10.6914H3.08454C2.92114 10.6914 2.77161 10.5424 2.77161 10.3785V9.47064C2.77161 9.30674 2.92104 9.1578 3.08454 9.1578H3.1903V3.12877H2.52479V13.0361C2.53059 13.279 2.41057 13.4107 2.18108 13.4107H1.37018C1.1157 13.4079 1.0064 13.2732 1 13.0317V1.85054C1 1.36094 1.37678 1 1.76683 1C2.08518 1 2.39189 1.24072 2.49401 1.59497H10.5151C10.6168 1.24043 10.9196 1 11.2378 1L11.2376 1.00048ZM5.21286 3.1291H3.81573V9.15813H5.21286V3.1291ZM8.37294 8.7086C7.88351 8.7086 7.47389 9.10879 7.47389 9.6032C7.47389 10.1003 7.88354 10.5067 8.37294 10.5067C8.86511 10.5067 9.26754 10.0968 9.26754 9.6032C9.26754 9.11242 8.865 8.7086 8.37294 8.7086ZM5.64048 9.78393H3.39281V10.0616H5.64048V9.78393Z" fill="#20734B"/>
</svg>
