<svg width="21" height="21" viewBox="0 0 21 21" fill="none" xmlns="http://www.w3.org/2000/svg">
<g clip-path="url(#clip0_204_36)">
<path d="M14 16V15H16V14H12.5V13H16V12H14V11H16V10H14V9H16V8H12.5V7H16V6H14V5H16V4H11V17H16V16H14ZM9 14H5V4H9V14ZM9 15L7 17L5 15H9Z" fill="white" stroke="white" stroke-width="2" stroke-linejoin="round"/>
<path d="M14 16V15H16V14H12.5V13H16V12H14V11H16V10H14V9H16V8H12.5V7H16V6H14V5H16V4H11V17H16V16H14ZM9 14H5V4H9V14ZM9 15L7 17L5 15H9Z" fill="#20734B"/>
</g>
<defs>
<clipPath id="clip0_204_36">
<rect width="21" height="21" fill="white"/>
</clipPath>
</defs>
</svg>
