<svg width="13" height="13" viewBox="0 0 13 13" fill="none" xmlns="http://www.w3.org/2000/svg">
<g clip-path="url(#clip0_204_39)">
<path d="M4.5046 5.8043L5.288 8.125H7.74252L8.49591 5.8048L6.51144 4.36973L4.5046 5.8043ZM6.48855 0C2.91489 0 0 2.90976 0 6.5C0 10.0902 2.91489 13 6.51144 13C10.108 13 13 10.0902 13 6.52285C13 2.95547 10.108 0 6.48855 0ZM11.0695 9.16855L8.42673 9.12849L7.64662 11.6554C7.27959 11.7355 6.90061 11.7812 6.51144 11.7812C6.12228 11.7812 5.74355 11.7362 5.37805 11.6561L4.59871 9.13047L1.95419 9.16855C1.57444 8.5249 1.32365 7.79721 1.24709 7.01746L3.41596 5.49453L2.56134 2.99863C3.06623 2.43141 3.68863 1.97158 4.3937 1.66258L6.51144 3.25L8.62995 1.66385C9.33502 1.97285 9.95743 2.43242 10.4623 2.9999L9.60693 5.49453L11.7748 7.01721C11.6774 7.79746 11.4484 8.52617 11.0695 9.16855Z" fill="white" stroke="white" stroke-width="2"/>
<path d="M4.5046 5.8043L5.288 8.125H7.74252L8.49591 5.8048L6.51144 4.36973L4.5046 5.8043ZM6.48855 0C2.91489 0 0 2.90976 0 6.5C0 10.0902 2.91489 13 6.51144 13C10.108 13 13 10.0902 13 6.52285C13 2.95547 10.108 0 6.48855 0ZM11.0695 9.16855L8.42673 9.12849L7.64662 11.6554C7.27959 11.7355 6.90061 11.7812 6.51144 11.7812C6.12228 11.7812 5.74355 11.7362 5.37805 11.6561L4.59871 9.13047L1.95419 9.16855C1.57444 8.5249 1.32365 7.79721 1.24709 7.01746L3.41596 5.49453L2.56134 2.99863C3.06623 2.43141 3.68863 1.97158 4.3937 1.66258L6.51144 3.25L8.62995 1.66385C9.33502 1.97285 9.95743 2.43242 10.4623 2.9999L9.60693 5.49453L11.7748 7.01721C11.6774 7.79746 11.4484 8.52617 11.0695 9.16855Z" fill="#503D89"/>
</g>
<defs>
<clipPath id="clip0_204_39">
<rect width="13" height="13" fill="white"/>
</clipPath>
</defs>
</svg>
