<svg width="21" height="21" viewBox="0 0 21 21" fill="none" xmlns="http://www.w3.org/2000/svg">
<g clip-path="url(#clip0_204_44)">
<path d="M13.1113 5C12.9989 5 12.6758 5.1465 12.6758 5.1465L9.3535 6.8262C8.9111 7.0024 8.7358 7.7081 9.002 8.0605L9.9727 9.4687L6.002 11.498L8 12.998L10.502 11.498L13.002 12.998L14.004 11.996L11.004 7.996L13.5606 6.4667C14.0892 6.2005 14.004 5.7622 14.004 5.496C13.9999 5.2861 13.6437 5 13.1113 5ZM15.252 8C14.2847 8 13.5 8.7827 13.5 9.75C13.5 10.7173 14.2847 11.502 15.252 11.502C16.2193 11.502 17.002 10.7173 17.002 9.75C17.002 8.7827 16.2192 8 15.252 8ZM5.5 13L3 14.5V16L5.5 14.5L8 16L10.502 14.5L13.002 16L15 14.5L18 16V14.5L15 13L13.002 14.5L10.502 13L8 14.5L5.5 13Z" fill="white" stroke="white" stroke-width="2" stroke-linejoin="round"/>
<path d="M13.1113 5C12.9989 5 12.6758 5.1465 12.6758 5.1465L9.3535 6.8262C8.9111 7.0024 8.7358 7.7081 9.002 8.0605L9.9727 9.4687L6.002 11.498L8 12.998L10.502 11.498L13.002 12.998L14.004 11.996L11.004 7.996L13.5606 6.4667C14.0892 6.2005 14.004 5.7622 14.004 5.496C13.9999 5.2861 13.6437 5 13.1113 5ZM15.252 8C14.2847 8 13.5 8.7827 13.5 9.75C13.5 10.7173 14.2847 11.502 15.252 11.502C16.2193 11.502 17.002 10.7173 17.002 9.75C17.002 8.7827 16.2192 8 15.252 8ZM5.5 13L3 14.5V16L5.5 14.5L8 16L10.502 14.5L13.002 16L15 14.5L18 16V14.5L15 13L13.002 14.5L10.502 13L8 14.5L5.5 13Z" fill="#4264FB"/>
</g>
<defs>
<clipPath id="clip0_204_44">
<rect width="21" height="21" fill="white"/>
</clipPath>
</defs>
</svg>
