<svg width="21" height="21" viewBox="0 0 21 21" fill="none" xmlns="http://www.w3.org/2000/svg">
<g clip-path="url(#clip0_204_49)">
<path d="M16.1284 4.87C14.5866 3.3294 11.5749 4.0941 9.8484 5.92C8.71155 7.11191 8.04386 8.67459 7.9684 10.32C8.00458 11.2597 7.80882 12.1939 7.3984 13.04C7.28171 13.006 7.15805 13.0038 7.04024 13.0337C6.92244 13.0636 6.81477 13.1245 6.7284 13.21L4.2384 15.71C4.10872 15.8401 4.0359 16.0163 4.0359 16.2C4.0359 16.3837 4.10872 16.5599 4.2384 16.69L4.3084 16.76C4.43987 16.8871 4.61556 16.9581 4.7984 16.9581C4.98124 16.9581 5.15693 16.8871 5.2884 16.76L7.7884 14.27C7.87379 14.1855 7.93539 14.08 7.96699 13.9642C7.99859 13.8483 7.99908 13.7261 7.9684 13.61C8.96322 13.2241 10.0214 13.0274 11.0884 13.03C12.5945 12.8863 14.0043 12.2255 15.0784 11.16C17.1084 9.13 17.579 6.3194 16.1284 4.87ZM13.9284 4.83C14.534 4.8101 15.123 5.02921 15.5684 5.44C15.8536 5.76993 16.0493 6.16753 16.1369 6.59474C16.2244 7.02196 16.2008 7.4645 16.0684 7.88L13.1184 4.92C13.3845 4.86154 13.656 4.83137 13.9284 4.83ZM9.3584 11.64C9.06635 11.2918 8.86879 10.8744 8.78473 10.4278C8.70066 9.98122 8.73292 9.52052 8.8784 9.09L11.9184 12.13C11.4835 12.2576 11.0244 12.2797 10.5792 12.1945C10.134 12.1093 9.71547 11.9192 9.3584 11.64ZM12.2384 12.03L8.9784 8.76C9.0997 8.38237 9.26412 8.01998 9.4684 7.68L13.3184 11.53C12.9775 11.7352 12.6154 11.9028 12.2384 12.03ZM13.5784 11.37L9.6384 7.42C9.85059 7.09324 10.0988 6.79135 10.3784 6.52L14.4784 10.62C14.205 10.9003 13.9034 11.1517 13.5784 11.37ZM14.6884 10.41L10.5884 6.31C10.8471 6.06708 11.1283 5.84942 11.4284 5.66L15.3484 9.58C15.1546 9.87651 14.9336 10.1544 14.6884 10.41ZM15.5084 9.32L11.6984 5.5C12.0369 5.28868 12.404 5.12703 12.7884 5.02L15.9884 8.22C15.8685 8.6029 15.7076 8.97171 15.5084 9.32Z" fill="white" stroke="white" stroke-width="2" stroke-linejoin="round"/>
<path d="M16.1284 4.87C14.5866 3.3294 11.5749 4.0941 9.8484 5.92C8.71155 7.11191 8.04386 8.67459 7.9684 10.32C8.00458 11.2597 7.80882 12.1939 7.3984 13.04C7.28171 13.006 7.15805 13.0038 7.04024 13.0337C6.92244 13.0636 6.81477 13.1245 6.7284 13.21L4.2384 15.71C4.10872 15.8401 4.0359 16.0163 4.0359 16.2C4.0359 16.3837 4.10872 16.5599 4.2384 16.69L4.3084 16.76C4.43987 16.8871 4.61556 16.9581 4.7984 16.9581C4.98124 16.9581 5.15693 16.8871 5.2884 16.76L7.7884 14.27C7.87379 14.1855 7.93539 14.08 7.96699 13.9642C7.99859 13.8483 7.99908 13.7261 7.9684 13.61C8.96322 13.2241 10.0214 13.0274 11.0884 13.03C12.5945 12.8863 14.0043 12.2255 15.0784 11.16C17.1084 9.13 17.579 6.3194 16.1284 4.87ZM13.9284 4.83C14.534 4.8101 15.123 5.02921 15.5684 5.44C15.8536 5.76993 16.0493 6.16753 16.1369 6.59474C16.2244 7.02196 16.2008 7.4645 16.0684 7.88L13.1184 4.92C13.3845 4.86154 13.656 4.83137 13.9284 4.83ZM9.3584 11.64C9.06635 11.2918 8.86879 10.8744 8.78473 10.4278C8.70066 9.98122 8.73292 9.52052 8.8784 9.09L11.9184 12.13C11.4835 12.2576 11.0244 12.2797 10.5792 12.1945C10.134 12.1093 9.71547 11.9192 9.3584 11.64ZM12.2384 12.03L8.9784 8.76C9.0997 8.38237 9.26412 8.01998 9.4684 7.68L13.3184 11.53C12.9775 11.7352 12.6154 11.9028 12.2384 12.03ZM13.5784 11.37L9.6384 7.42C9.85059 7.09324 10.0988 6.79135 10.3784 6.52L14.4784 10.62C14.205 10.9003 13.9034 11.1517 13.5784 11.37ZM14.6884 10.41L10.5884 6.31C10.8471 6.06708 11.1283 5.84942 11.4284 5.66L15.3484 9.58C15.1546 9.87651 14.9336 10.1544 14.6884 10.41ZM15.5084 9.32L11.6984 5.5C12.0369 5.28868 12.404 5.12703 12.7884 5.02L15.9884 8.22C15.8685 8.6029 15.7076 8.97171 15.5084 9.32Z" fill="#503D89"/>
</g>
<defs>
<clipPath id="clip0_204_49">
<rect width="21" height="21" fill="white"/>
</clipPath>
</defs>
</svg>
