<svg xmlns="http://www.w3.org/2000/svg" id="Layer_1" viewBox="0 0 25.59 42"><style>.st0{opacity:0.3;} .st1{fill:#0D0D0D;} .st2{fill:#FFFFFF;}</style><ellipse cx="12.77" cy="40.38" class="st0" rx="9.82" ry="1.62"/><path d="M12.78 40.65c-1.38 0-2.6-.98-2.9-2.32-1.56-7.17-4-11.5-6.13-15.3-.93-1.66-1.8-3.2-2.56-4.88-.8-1.67-1.2-3.5-1.2-5.38C0 5.73 5.72 0 12.76 0c7.05 0 12.78 5.73 12.78 12.77 0 1.8-.37 3.53-1.1 5.18l-.1.2c-.74 1.67-1.62 3.23-2.55 4.88-2.14 3.82-4.57 8.14-6.14 15.3-.3 1.34-1.5 2.32-2.88 2.32z" class="st1"/><path d="M12.78 38.96c-.6 0-1.1-.4-1.24-1-1.62-7.4-4.12-11.84-6.32-15.76-.9-1.6-1.77-3.14-2.5-4.74C2.05 16 1.7 14.4 1.7 12.76 1.7 6.66 6.65 1.7 12.76 1.7c6.12 0 11.1 4.96 11.1 11.07 0 1.58-.34 3.1-1 4.56 0 .04-.03.1-.05.13-.7 1.6-1.57 3.13-2.5 4.74-2.2 3.92-4.7 8.35-6.3 15.77-.12.58-.64 1-1.23 1z" class="st2"/><path d="M12.78 36.85c2.33-10.7 6.5-14.57 8.9-19.9h-.03c.6-1.27.94-2.68.94-4.18 0-5.42-4.4-9.8-9.84-9.8s-9.8 4.38-9.8 9.8c0 1.5.32 2.9.92 4.17 2.38 5.34 6.54 9.2 8.88 19.9z" class="st1"/><circle cx="12.77" cy="9.98" r="2.75" class="st2"/></svg>