<?xml version="1.0" encoding="UTF-8" standalone="no"?>
<svg
   viewBox="0 0 21.999982 21.999977"
   version="1.1"
   id="svg134"
   sodipodi:docname="baseball.svg"
   width="21.999981"
   height="21.999977"
   inkscape:version="1.2 (dc2aedaf03, 2022-05-15)"
   xmlns:inkscape="http://www.inkscape.org/namespaces/inkscape"
   xmlns:sodipodi="http://sodipodi.sourceforge.net/DTD/sodipodi-0.dtd"
   xmlns="http://www.w3.org/2000/svg"
   xmlns:svg="http://www.w3.org/2000/svg">
  <defs
     id="defs138" />
  <sodipodi:namedview
     id="namedview136"
     pagecolor="#ffffff"
     bordercolor="#666666"
     borderopacity="1.0"
     inkscape:showpageshadow="2"
     inkscape:pageopacity="0.0"
     inkscape:pagecheckerboard="0"
     inkscape:deskcolor="#d1d1d1"
     showgrid="false"
     inkscape:zoom="26.737475"
     inkscape:cx="16.549805"
     inkscape:cy="12.323527"
     inkscape:window-width="1920"
     inkscape:window-height="1018"
     inkscape:window-x="2729"
     inkscape:window-y="-6"
     inkscape:window-maximized="1"
     inkscape:current-layer="svg134" />
  <!--! Font Awesome Pro 6.2.0 by @fontawesome - https://fontawesome.com License - https://fontawesome.com/license (Commercial License) Copyright 2022 Fonticons, Inc. -->
  <path
     d="m 6.3605571,10.114942 c -0.121875,0.01016 -0.246289,0.01524 -0.373242,0.01524 -0.3960944,0 -0.7820323,-0.0508 -1.1476575,-0.1498636 0.4164065,-2.8194715 2.6482445,-5.0521885 5.4666054,-5.4687592 0.09902,0.3657694 0.149805,0.7518593 0.149805,1.1481094 0,0.1244632 -0.0051,0.2489264 -0.01523,0.3733896 -0.01777,0.2235257 0.147266,0.4191106 0.370705,0.4394311 0.223437,0.02032 0.418944,-0.1473238 0.439257,-0.3708494 0.0127,-0.1447837 0.01777,-0.2921075 0.01777,-0.4394312 0,-0.4191108 -0.04824,-0.8280612 -0.142187,-1.2166912 0.04571,0 0.09395,-0.00254 0.142187,-0.00254 3.590239,-0.00254 6.500007,2.9083739 6.500007,6.5000265 0,0.04826 0,0.09398 -0.0025,0.142243 -0.391016,-0.09144 -0.797266,-0.142243 -1.216212,-0.142243 -0.147265,0 -0.294531,0.005 -0.439258,0.01778 -0.223437,0.01778 -0.391015,0.215906 -0.370703,0.439431 0.02032,0.223526 0.21582,0.39117 0.439258,0.370849 0.121874,-0.01016 0.246289,-0.01524 0.373242,-0.01524 0.396095,0 0.782033,0.0508 1.147657,0.149864 -0.418945,2.819471 -2.650782,5.052189 -5.469144,5.46876 -0.09902,-0.365771 -0.149805,-0.751861 -0.149805,-1.148111 0,-0.124463 0.005,-0.248925 0.01523,-0.373389 0.01777,-0.223526 -0.147267,-0.41911 -0.370704,-0.439431 -0.223437,-0.02032 -0.418946,0.147323 -0.439259,0.370849 -0.0127,0.144784 -0.01777,0.292108 -0.01777,0.439431 0,0.419111 0.04824,0.828062 0.142187,1.216692 -0.04571,0 -0.09395,0.0025 -0.142187,0.0025 -3.5902819,0.0026 -6.5000499,-2.908316 -6.5000499,-6.499967 0,-0.04826 0,-0.09398 0.00254,-0.142245 0.3884768,0.09398 0.7972661,0.142245 1.216212,0.142245 0.147266,0 0.294531,-0.005 0.439258,-0.01778 0.223424,-0.01778 0.391003,-0.215906 0.37069,-0.439431 -0.02031,-0.223527 -0.21582,-0.391172 -0.439258,-0.370851 z m 1.487892,-0.39117 c -0.203126,0.093983 -0.294532,0.335288 -0.200586,0.538493 0.09394,0.203206 0.335156,0.294648 0.538281,0.200666 C 9.3338011,9.9345973 10.26056,9.0100136 10.788685,7.8593645 10.882635,7.6561593 10.793785,7.4148531 10.588099,7.3208708 10.382435,7.2268888 10.143763,7.3157908 10.049818,7.5215359 9.6029421,8.4943807 8.8183711,9.2792608 7.8484491,9.723772 Z M 14.886735,11.6212 c -0.09395,-0.203205 -0.335157,-0.294647 -0.538282,-0.200665 -1.147657,0.528334 -2.074415,1.452918 -2.60254,2.603567 -0.09395,0.203205 -0.005,0.44451 0.200586,0.538494 0.205664,0.09398 0.444336,0.0051 0.538282,-0.200666 0.446874,-0.972845 1.231446,-1.757724 2.201368,-2.202236 0.203126,-0.09398 0.294531,-0.335289 0.200586,-0.538494 z"
     id="path132"
     style="stroke-width:0.126;fill:#c1c9cc;fill-opacity:1;stroke:#000000;stroke-opacity:1;stroke-dasharray:none" />
</svg>
