<?xml version="1.0" encoding="UTF-8" standalone="no"?>
<svg
   viewBox="0 0 32 32.056358"
   version="1.1"
   id="svg8034"
   sodipodi:docname="soccer.svg"
   width="32"
   height="32.056358"
   inkscape:version="1.2 (dc2aedaf03, 2022-05-15)"
   xmlns:inkscape="http://www.inkscape.org/namespaces/inkscape"
   xmlns:sodipodi="http://sodipodi.sourceforge.net/DTD/sodipodi-0.dtd"
   xmlns="http://www.w3.org/2000/svg"
   xmlns:svg="http://www.w3.org/2000/svg">
  <defs
     id="defs8038" />
  <sodipodi:namedview
     id="namedview8036"
     pagecolor="#ffffff"
     bordercolor="#666666"
     borderopacity="1.0"
     inkscape:showpageshadow="2"
     inkscape:pageopacity="0.0"
     inkscape:pagecheckerboard="0"
     inkscape:deskcolor="#d1d1d1"
     showgrid="false"
     inkscape:zoom="10.429825"
     inkscape:cx="20.6619"
     inkscape:cy="11.265769"
     inkscape:window-width="957"
     inkscape:window-height="1010"
     inkscape:window-x="3691"
     inkscape:window-y="0"
     inkscape:window-maximized="0"
     inkscape:current-layer="svg8034" />
  <!--! Font Awesome Pro 6.2.0 by @fontawesome - https://fontawesome.com License - https://fontawesome.com/license (Commercial License) Copyright 2022 Fonticons, Inc. -->
  <path
     d="m 11.088237,14.312662 1.92839,5.72256 h 6.041872 l 1.85451,-5.721308 -4.884838,-3.538721 z M 15.971822,0 C 7.1751077,0 0,7.1751138 0,16.028178 0,24.881242 7.1751077,32.056357 16.028171,32.056357 24.881235,32.056357 32,24.881242 32,16.084526 32,7.287812 24.881235,0 15.971822,0 Z m 11.276074,22.608495 -6.505187,-0.0988 -1.92025,6.230953 c -0.903464,0.197717 -1.836354,0.310421 -2.794288,0.310421 -0.957933,0 -1.890198,-0.111019 -2.789904,-0.308667 l -1.918373,-6.227824 -6.5095687,0.09391 C 3.8755569,21.02133 3.2582216,19.226926 3.0697653,17.304171 L 8.4085257,13.548819 6.3048277,7.3942491 C 7.5476376,5.9955403 9.0797059,4.8616719 10.815257,4.0997073 l 5.212914,3.9143811 5.214793,-3.9112506 c 1.735551,0.7619646 3.26762,1.8952068 4.510429,3.2945419 l -2.105577,6.1514393 5.336256,3.754725 c -0.239795,1.924008 -0.803287,3.720917 -1.736176,5.304951 z"
     id="path8032"
     style="stroke-width:0.0626101" />
</svg>
